<svg width="100" height="100" viewBox="0 0 100 100" fill="none" xmlns="http://www.w3.org/2000/svg">
<g clip-path="url(#clip0_22_28)">
<path d="M43.2495 -12.65C45.6911 -14.549 46.9119 -15.4986 48.2165 -15.8516C49.2765 -16.1385 50.3698 -16.1385 51.4298 -15.8516C52.7343 -15.4986 53.9551 -14.549 56.3968 -12.65L86.6246 10.8609C88.9859 12.6977 90.1669 13.616 91.0154 14.9004C91.7043 15.9444 92.2307 17.1574 92.5626 18.4698C92.9712 20.0844 92.9712 21.8895 92.9712 25.4995V73.2153C92.9712 76.8254 92.9712 78.6303 92.5626 80.2449C92.2307 81.5572 91.7043 82.7707 91.0154 83.8147C90.1669 85.0985 88.9859 86.0173 86.6246 87.8541L56.3968 111.365C53.9551 113.264 52.7343 114.213 51.4298 114.566C50.3698 114.854 49.2765 114.854 48.2165 114.566C46.9119 114.213 45.6911 113.264 43.2495 111.365L13.0217 87.8541C10.6602 86.0173 9.47947 85.0985 8.63112 83.8147C7.94167 82.7707 7.41572 81.5572 7.08364 80.2449C6.67505 78.6303 6.67505 76.8254 6.67505 73.2153V25.4995C6.67505 21.8895 6.67505 20.0844 7.08364 18.4698C7.41572 17.1574 7.94167 15.9444 8.63112 14.9004C9.47947 13.616 10.6602 12.6977 13.0217 10.8609L43.2495 -12.65Z" fill="url(#paint0_linear_22_28)" fill-opacity="0.5"/>
<path d="M43.7173 -12.4368C46.1589 -14.3358 47.3797 -15.2854 48.6843 -15.6385C49.7443 -15.9254 50.8375 -15.9254 51.8975 -15.6385C53.2021 -15.2854 54.4229 -14.3358 56.8645 -12.4368L87.0923 11.074C89.4537 12.9108 90.6347 13.8291 91.4831 15.1135C92.1721 16.1575 92.6985 17.3706 93.0304 18.6829C93.439 20.2975 93.439 22.1026 93.439 25.7126V73.4284C93.439 77.0385 93.439 78.8434 93.0304 80.4581C92.6985 81.7703 92.1721 82.9838 91.4831 84.0278C90.6347 85.3116 89.4537 86.2304 87.0923 88.0672L56.8645 111.578C54.4229 113.477 53.2021 114.426 51.8975 114.779C50.8375 115.067 49.7443 115.067 48.6843 114.779C47.3797 114.426 46.1589 113.477 43.7173 111.578L13.4894 88.0672C11.128 86.2304 9.94724 85.3116 9.0989 84.0278C8.40945 82.9838 7.8835 81.7703 7.55141 80.4581C7.14282 78.8434 7.14282 77.0385 7.14282 73.4284V25.7126C7.14282 22.1026 7.14282 20.2975 7.55141 18.6829C7.8835 17.3706 8.40945 16.1575 9.0989 15.1135C9.94724 13.8291 11.128 12.9108 13.4894 11.074L43.7173 -12.4368Z" fill="white"/>
<path d="M21.6012 59.3398L21.6012 59.3398C20.2565 61.5369 20.5237 64.7462 22.1981 66.5079L41.1876 86.4881C42.862 88.2498 45.3094 87.8968 46.6541 85.6997L46.6542 85.6997C47.9989 83.5026 47.7317 80.2933 46.0573 78.5316L27.0678 58.5514C25.3934 56.7897 22.946 57.1427 21.6012 59.3398Z" fill="#F2FFF5" fill-opacity="0.64" stroke="#005813" stroke-width="2"/>
<path d="M57.3745 9.74385C55.6274 7.90556 53.0735 8.27386 51.6703 10.5665C50.2671 12.8591 50.546 16.2079 52.2931 18.0462L71.0191 37.749C72.7662 39.5873 75.3201 39.219 76.7232 36.9264C78.1264 34.6338 77.8476 31.285 76.1004 29.4467L57.3745 9.74385Z" fill="#F2FFF5" fill-opacity="0.64" stroke="#005813" stroke-width="2"/>
<path d="M22.0556 69.674C22.6152 68.7599 23.6337 68.6129 24.3305 69.346L38.6128 84.3734C39.3094 85.1065 39.4206 86.442 38.8612 87.356C37.5295 89.5319 35.1056 89.8815 33.4475 88.1367L22.6467 76.7728L22.4953 76.6054C20.9734 74.8308 20.7655 71.7819 22.0556 69.674Z" fill="#F2FFF5" fill-opacity="0.64" stroke="#005813" stroke-width="2"/>
<path d="M59.3675 9.06679C60.7098 6.87388 63.1528 6.52141 64.8239 8.27982L75.5773 19.5938C77.2485 21.3524 77.5153 24.5559 76.173 26.749C75.608 27.672 74.5798 27.8203 73.8761 27.0803L59.6182 12.0785L59.4929 11.9325C58.9033 11.1712 58.8379 9.932 59.3675 9.06679Z" fill="#F2FFF5" fill-opacity="0.64" stroke="#005813" stroke-width="2"/>
<path d="M54.4655 32.5446C56.6458 28.9821 60.5133 28.2427 63.3595 30.7155L42.9879 64.0001C40.8075 67.5626 36.9399 68.3019 34.0939 65.8292L54.4655 32.5446Z" fill="#4AA05D" stroke="#005813" stroke-width="2"/>
<path d="M54.7034 54.9214C56.8241 54.9214 58.8607 57.4744 58.8607 61.1614C58.8606 64.8484 56.824 67.4006 54.7034 67.4006C52.583 67.4005 50.5469 64.8482 50.5468 61.1614C50.5468 57.4745 52.5829 54.9216 54.7034 54.9214Z" stroke="#4AA05D" stroke-width="7"/>
<path d="M54.7035 52.9029C57.7963 52.9029 60.3945 56.5317 60.3945 61.1614C60.3944 65.791 57.7963 69.4191 54.7035 69.4191C51.6109 69.419 49.0132 65.7909 49.0131 61.1614C49.0131 56.5318 51.6108 52.9031 54.7035 52.9029Z" stroke="#005813" stroke-width="2"/>
<path d="M43.3154 28.2579C45.494 28.2579 47.4726 30.7732 47.4727 34.2307C47.4727 37.6883 45.494 40.2041 43.3154 40.2041C41.1369 40.204 39.1587 37.6881 39.1587 34.2307C39.1588 30.7733 41.1369 28.2581 43.3154 28.2579Z" stroke="#4AA05D" stroke-width="7"/>
<path d="M43.3154 26.2394C46.4248 26.2394 49.0064 29.7718 49.0065 34.2307C49.0065 38.6896 46.4248 42.2226 43.3154 42.2226C40.2062 42.2225 37.625 38.6895 37.625 34.2307C37.6251 29.772 40.2062 26.2396 43.3154 26.2394Z" stroke="#005813" stroke-width="2"/>
<path d="M43.519 31.0388C44.9447 31.0388 46.1593 32.663 46.1593 34.7644C46.1592 36.8656 44.9447 38.4899 43.519 38.4899C42.0932 38.4899 40.8787 36.8657 40.8787 34.7644C40.8787 32.663 42.0932 31.0388 43.519 31.0388Z" stroke="#005813" stroke-width="2"/>
<path d="M54.7037 57.1691C56.2763 57.1691 57.5477 58.84 57.5477 60.8946C57.5476 62.9492 56.2762 64.6202 54.7037 64.6202C53.1312 64.62 51.8603 62.9491 51.8602 60.8946C51.8602 58.8401 53.1311 57.1693 54.7037 57.1691Z" stroke="#005813" stroke-width="2"/>
</g>
<defs>
<linearGradient id="paint0_linear_22_28" x1="81.8117" y1="-0.792093" x2="-72.9922" y2="79.7192" gradientUnits="userSpaceOnUse">
<stop stop-color="#14DA3F" stop-opacity="0.14"/>
<stop offset="1" stop-opacity="0.37"/>
</linearGradient>
<clipPath id="clip0_22_28">
<rect width="100" height="100" fill="white"/>
</clipPath>
</defs>
</svg>
