<svg width="628" height="620" viewBox="0 0 628 620" fill="none" xmlns="http://www.w3.org/2000/svg">
<path d="M273.909 22.8371C288.827 14.3391 296.286 10.0901 304.225 8.50758C310.678 7.22128 317.322 7.22128 323.775 8.50758C331.714 10.0901 339.173 14.3391 354.091 22.8371L545.023 131.597C560.231 140.259 567.835 144.59 573.305 150.745C577.75 155.746 581.146 161.589 583.292 167.927C585.932 175.727 585.932 184.477 585.932 201.979V417.617C585.932 435.119 585.932 443.87 583.292 451.669C581.146 458.007 577.75 463.85 573.305 468.851C567.835 475.006 560.231 479.337 545.023 488L354.091 596.759C339.173 605.257 331.714 609.506 323.775 611.089C317.322 612.375 310.678 612.375 304.225 611.089C296.286 609.506 288.827 605.257 273.909 596.759L82.9765 488C67.7691 479.337 60.1654 475.006 54.6954 468.851C50.2502 463.85 46.8541 458.007 44.7084 451.669C42.068 443.87 42.068 435.119 42.068 417.617V201.979C42.068 184.477 42.068 175.727 44.7084 167.927C46.8541 161.589 50.2502 155.746 54.6954 150.745C60.1654 144.59 67.7691 140.259 82.9765 131.597L273.909 22.8371Z" fill="url(#paint0_linear_803_907)" fill-opacity="0.5"/>
<path d="M273.909 22.8371C288.827 14.3391 296.286 10.0901 304.225 8.50758C310.678 7.22128 317.322 7.22128 323.775 8.50758C331.714 10.0901 339.173 14.3391 354.091 22.8371L545.023 131.597C560.231 140.259 567.835 144.59 573.305 150.745C577.75 155.746 581.146 161.589 583.292 167.927C585.932 175.727 585.932 184.477 585.932 201.979V417.617C585.932 435.119 585.932 443.87 583.292 451.669C581.146 458.007 577.75 463.85 573.305 468.851C567.835 475.006 560.231 479.337 545.023 488L354.091 596.759C339.173 605.257 331.714 609.506 323.775 611.089C317.322 612.375 310.678 612.375 304.225 611.089C296.286 609.506 288.827 605.257 273.909 596.759L82.9765 488C67.7691 479.337 60.1654 475.006 54.6954 468.851C50.2502 463.85 46.8541 458.007 44.7084 451.669C42.068 443.87 42.068 435.119 42.068 417.617V201.979C42.068 184.477 42.068 175.727 44.7084 167.927C46.8541 161.589 50.2502 155.746 54.6954 150.745C60.1654 144.59 67.7691 140.259 82.9765 131.597L273.909 22.8371Z" fill="white"/>
<rect x="3.58342" y="-0.392369" width="51.1384" height="204.622" rx="25.5692" transform="matrix(0.641259 -0.767325 0.792111 0.610377 122.596 375.669)" fill="url(#paint1_linear_803_907)" stroke="#044812" stroke-width="5"/>
<rect x="3.58342" y="-0.392369" width="53.2458" height="204.622" rx="26.6229" transform="matrix(0.641259 -0.767325 0.792111 0.610377 313.868 148.458)" fill="url(#paint2_linear_803_907)" stroke="#044812" stroke-width="5"/>
<path d="M145.269 399.712L146.161 398.645C148.817 395.466 153.63 394.939 156.911 397.468L254.465 472.64C257.746 475.168 258.253 479.794 255.597 482.973L254.705 484.04C244.966 495.694 227.318 497.626 215.287 488.356L149.418 437.599C137.387 428.328 135.53 411.366 145.269 399.712Z" fill="url(#paint3_linear_803_907)" stroke="#044812" stroke-width="5"/>
<path d="M381.691 119.671C391.441 108.004 409.197 105.97 421.214 115.229L487.083 165.987C499.099 175.246 500.877 192.332 491.127 203.999C488.459 207.191 483.608 207.736 480.341 205.218L382.787 130.046C379.52 127.529 379.023 122.863 381.691 119.671Z" fill="url(#paint4_linear_803_907)" stroke="#044812" stroke-width="5"/>
<path d="M350.68 227.899C354.199 223.688 355.827 221.746 357.365 220.282C370.047 208.212 389.626 206.069 404.619 215.108C406.136 216.023 407.784 217.249 410.812 219.574L281.557 374.239C278.038 378.451 276.41 380.392 274.872 381.856C262.19 393.926 242.61 396.069 227.617 387.03C226.1 386.115 224.452 384.889 221.425 382.564L350.68 227.899Z" fill="#4AA05D" stroke="#005813" stroke-width="5"/>
<circle cx="353.127" cy="360.024" r="28" stroke="#4AA05D" stroke-width="24"/>
<circle cx="353.127" cy="360.024" r="37.5" stroke="#005813" stroke-width="5"/>
<circle cx="280.431" cy="235.37" r="28" stroke="#4AA05D" stroke-width="24"/>
<circle cx="280.431" cy="235.37" r="37.5" stroke="#005813" stroke-width="5"/>
<circle cx="279.833" cy="235.5" r="15" stroke="#005813" stroke-width="5"/>
<circle cx="352.833" cy="360.5" r="15" stroke="#005813" stroke-width="5"/>
<defs>
<linearGradient id="paint0_linear_803_907" x1="515.602" y1="78.3297" x2="-308.375" y2="663.474" gradientUnits="userSpaceOnUse">
<stop stop-color="#14DA3F" stop-opacity="0.14"/>
<stop offset="1" stop-opacity="0.37"/>
</linearGradient>
<linearGradient id="paint1_linear_803_907" x1="17.0358" y1="114.137" x2="97.6638" y2="112.826" gradientUnits="userSpaceOnUse">
<stop stop-color="white"/>
<stop offset="1" stop-color="#999999"/>
</linearGradient>
<linearGradient id="paint2_linear_803_907" x1="40.1473" y1="104.762" x2="-42.1096" y2="104.024" gradientUnits="userSpaceOnUse">
<stop offset="0.176" stop-color="white"/>
<stop offset="1" stop-color="#999999"/>
</linearGradient>
<linearGradient id="paint3_linear_803_907" x1="164.893" y1="428.462" x2="246.933" y2="395.744" gradientUnits="userSpaceOnUse">
<stop stop-color="white"/>
<stop offset="1" stop-color="#999999"/>
</linearGradient>
<linearGradient id="paint4_linear_803_907" x1="441.758" y1="153.956" x2="427.813" y2="177.622" gradientUnits="userSpaceOnUse">
<stop offset="0.0659998" stop-color="white"/>
<stop offset="1" stop-color="#999999"/>
</linearGradient>
</defs>
</svg>
